PathFileType	4	(X/Y/Z)	Patient4_TMGait_0pt3_03_left_13.trc.trc
DataRate	CameraRate	NumFrames	NumMarkers	Units	OrigDataRate	OrigDataStartFrame	OrigNumFrames
56.000000000000	56.000000000000	7	33	mm	56.000000000000	71	       141
Frame#	Time	Sacral			L.Shoulder			Chest			R.Shoulder			Neck			R.ASIS			L.ASIS			R.Thigh.Superior			R.Thigh.Lateral			R.Thigh.Inferior			R.Patella			L.Thigh.Superior			L.Thigh.Lateral			L.Thigh.Inferior			L.Patella			L.Shank.Superior			L.Shank.Lateral			L.Shank.Inferior			R.Shank.Superior			R.Shank.Lateral			R.Shank.Inferior			R.Heel			R.Midfoot.Superior			R.Midfoot.Lateral			R.Toe			L.Heel			L.Midfoot.Lateral			L.Midfoot.Superior			L.Toe			L.Elbow			L.Wrist			R.Elbow			R.Wrist			
		X1	Y1	Z1	X2	Y2	Z2	X3	Y3	Z3	X4	Y4	Z4	X5	Y5	Z5	X6	Y6	Z6	X7	Y7	Z7	X8	Y8	Z8	X9	Y9	Z9	X10	Y10	Z10	X11	Y11	Z11	X12	Y12	Z12	X13	Y13	Z13	X14	Y14	Z14	X15	Y15	Z15	X16	Y16	Z16	X17	Y17	Z17	X18	Y18	Z18	X19	Y19	Z19	X20	Y20	Z20	X21	Y21	Z21	X22	Y22	Z22	X23	Y23	Z23	X24	Y24	Z24	X25	Y25	Z25	X26	Y26	Z26	X27	Y27	Z27	X28	Y28	Z28	X29	Y29	Z29	X30	Y30	Z30	X31	Y31	Z31	X32	Y32	Z32	X33	Y33	Z33	

71	24.940000000000	707.938942174777	1019.716992168108	394.901531890915	963.817904871711	1426.460192192683	236.517543583409	1020.717413626926	1357.232269961925	417.674717854761	909.631630641413	1447.090399530257	566.133654921592	915.019711817134	1495.604722752367	387.987020486914	910.425850130714	951.031111548185	555.378657734779	945.243250959200	953.271216656630	281.751493740656	980.809819887204	774.074546388240	534.324689552350	927.858490074092	657.047454014450	604.445445747975	1016.369704399942	611.064442324327	529.882251008353	1041.477100565546	520.372598659918	554.248729122241	963.610253871216	736.413244168524	317.303125158101	870.889203384386	625.874244318388	251.567116148440	942.169573266698	544.564165949112	324.854880426416	935.695822844241	475.415972329169	334.443083920576	899.749723629764	406.350935893394	325.304596251160	800.754089538143	300.943930818923	272.796224146897	833.735031546970	186.532769092271	347.469289614675	1004.363429443645	433.558601210113	565.583515198811	923.208241020901	339.968901312476	630.580569138423	970.436217079549	238.306497331688	584.456313089800	837.180715276367	72.778707464689	560.369792926201	1007.443716638316	120.457848956901	600.677440477378	919.961908859555	57.459654031548	634.099432099470	1125.088228697408	68.475389464504	627.718138903122	692.105189641007	39.200039585800	392.108817898575	763.542342370907	35.251015321452	309.217612225693	848.834248911975	94.749652695582	334.559186513616	975.646523316185	40.456122071353	300.249704102679	1016.437730425234	1095.174878913643	92.234873200209	1262.464826677107	1011.919568342990	98.257039095662	734.957159816499	1142.248044191187	656.378194523130	720.917576619217	880.405282842066	671.514409159279	
72	24.957857142857	707.493970237834	1019.857332111285	396.002966496175	964.971971014160	1425.929144095647	239.300377346683	1020.550950686043	1356.714289549903	420.889126818521	908.690394673818	1447.120791451255	568.405505208272	915.111506202017	1495.293915474454	390.280562699578	908.712205078511	950.226279755574	557.841521063008	945.263427979595	952.969898698332	284.245227757418	976.552599954152	770.917728335356	537.222023538802	921.129552780448	655.011033653101	606.950780538493	1008.915890514190	608.041514107820	532.168261304619	1034.122836407970	520.388820227004	555.535015899993	961.080462352004	735.490227365066	319.406441276774	867.608340404630	626.024210938298	252.528949032377	937.598371415463	543.827138719467	325.813623449769	930.175929585520	474.942302067214	335.166257994413	894.514219123711	406.250902854333	325.748029607391	795.491424319458	300.972793983890	273.018027105524	828.345654645417	186.456837318961	347.607153239099	1002.171774044920	433.175984587882	567.232245852962	927.576054536449	334.574824605577	633.492652780391	980.640936869415	235.660834277453	586.681498303408	857.028836277246	62.271002009476	564.218163612434	1025.404010689616	118.979890707541	602.252815003835	941.888072142473	50.871969246780	636.663545000788	1146.684163979400	73.144368367107	627.326589419203	686.722538361660	39.173763041354	392.076177360012	758.118928858749	35.202002420067	309.207773743061	843.405775795636	94.691284070939	334.605082781150	970.236702094632	40.441684651828	300.304115332356	1023.495602076967	1096.062649122298	95.684744253839	1272.001945792323	1021.423187505027	102.989768215654	731.788675700708	1143.643784056087	657.543325103765	717.496350796539	881.701926037194	672.303719478392	
73	24.975714285714	707.295900539638	1019.487959500690	397.593700241473	965.664120916667	1425.144361544367	242.337345865626	1020.361538349632	1355.935016408470	424.209708605040	907.968972998161	1446.726342292184	571.073385106956	915.082731613938	1494.660731140874	392.938149935266	907.489517129883	948.909040174870	560.394987664625	945.391442437356	952.446931970721	286.826763939666	972.856835558429	767.328622930817	540.259636516493	914.897056088318	652.476358865872	609.435235936468	1002.140892895504	604.690465410445	534.512473974162	1027.108210078299	519.760115396016	556.797161641894	959.104976317053	734.439448836291	321.518817098535	864.920522311348	625.957641691279	253.642685293885	933.743788757605	542.929233439665	326.818466541967	925.413612061421	474.249880450892	335.957728910463	889.876904272469	405.898000034333	326.300361654120	790.635081050661	300.936599820082	273.329127530801	823.174589068674	186.252104958696	347.781898878257	999.752527085350	432.315512660626	568.712575837775	930.975903293477	329.598330571707	635.852094490527	989.004985886301	233.352242046601	588.379516267857	873.940218961847	54.014937989500	567.185373119080	1040.512115073778	117.835342216416	603.177770837002	960.419620047522	45.759496356657	638.403239535094	1164.489557066150	76.949185718722	626.289629206420	681.351208070013	39.138958558505	392.043017156825	752.705364873403	35.154988219851	309.200418063817	837.989888568800	94.626191079898	334.664328717477	964.833378287581	40.416530212149	300.355996007126	1030.037673519428	1096.756403141587	99.337373257048	1280.546476007276	1030.113750370799	107.762805426966	729.772728732690	1144.081074659076	659.317336738410	715.465197815031	882.044903500213	673.748111494735	
74	24.993571428571	707.372432185181	1018.688113338879	399.677517277483	965.914512644266	1424.205609820090	245.648146604193	1020.160860291576	1354.990206224288	427.664123851554	907.456168129395	1445.978320434417	574.166794764509	914.931265178055	1493.787727497438	395.989723146787	906.800280665087	947.207793126132	563.060477487671	945.671220115544	951.776743264544	289.512434551183	969.911701526531	763.578422850131	543.410335776860	909.417729740640	649.603078888271	611.798956529318	996.370164638807	601.267447287218	536.865688623618	1020.768682884531	518.621250093232	557.986066632893	957.672785969999	733.280425427999	323.665361165880	862.755142502880	625.724813435954	254.935946717221	930.508784773281	541.899712055613	327.899341286074	921.313119492448	473.376301430897	336.843553369230	885.747005167835	405.337530243623	326.977769491711	786.109390717104	300.867496812395	273.743829414219	818.184076988208	185.946901703236	347.997402436240	997.306270658008	431.020922628654	569.985454823663	933.349491744910	325.095214236571	637.584642698386	995.371925021765	231.268725519943	589.512474018206	887.356188812823	47.910188374605	569.207788093345	1052.432436461801	116.805496677402	603.456288269968	975.005446871342	41.998032730966	639.357204634386	1178.205257241478	79.507619098794	624.790592227707	675.986054310702	39.091538899643	392.011317853095	747.299656787554	35.109695809816	309.196522213998	832.583437647977	94.560581757162	334.731809352431	959.433116194737	40.383857584463	300.402219592516	1035.927147009013	1097.284433947903	103.221844273703	1288.028197437461	1037.948027885441	112.563957665294	728.890438952237	1143.615360444528	661.712318513106	714.721260587107	881.495859406468	675.864107203457	
75	25.011428571429	707.747277028152	1017.557753864076	402.249921298514	965.775630751888	1423.218155724976	249.252569856668	1019.971774119200	1353.978688667370	431.284162116093	907.143463855833	1444.960919875980	577.704000245574	914.667431803720	1492.766135025766	399.458473493464	906.679459092587	945.270527838865	565.860627493626	946.138641678547	951.036483901513	292.321307907067	967.876387994946	759.919139589533	546.633776790677	904.907057866903	646.561063470527	613.963649630822	991.854826067379	598.000842841256	539.180234862874	1015.382669215247	517.111959097829	559.057971601468	956.736234342426	732.038230371050	325.871960129408	861.004618183132	625.386756048635	256.430538310197	927.757952298833	540.777784472925	329.078937962550	917.740906335578	472.371382706155	337.840923557975	882.006752422324	404.629977438725	327.788629189051	781.817658552459	300.804043241204	274.274529126431	813.325366708872	185.577319277603	348.256524704438	995.034487722238	429.352416535850	571.033190186246	934.735734804909	321.086295048792	638.687206923872	999.730874867629	229.290882034828	590.093284033307	896.985608255357	43.729695820734	570.312122182893	1061.043499773972	115.687312127608	603.152962410380	985.382804428993	39.400436698730	639.638053261691	1187.789701589918	80.557618293786	623.046704962031	670.622349407606	39.030220984387	391.983738448121	741.900154470678	35.066223551534	309.198824615561	827.183600380265	94.500978197567	334.803057504063	954.032651451854	40.345476377515	300.439939490610	1041.038846575399	1097.679896822473	107.351623300150	1294.388150074544	1044.897504104407	117.389044241097	729.086367660842	1142.348491631092	664.732037333633	715.170156673079	880.160968898791	678.665901144488	
76	25.029285714286	708.436431938970	1016.206973553085	405.296889511507	965.326064071100	1422.282210628015	253.166528433888	1019.824891534239	1352.993091315581	435.101096182061	907.024234847724	1443.763324692505	581.689428537528	914.313668638445	1491.687441036216	403.356715456693	907.149286564408	943.249838647218	568.814693220403	946.818504438993	950.298945891765	295.271325858859	966.862052233419	756.559293516742	549.878313476320	901.533801236663	643.521937754302	615.891248495530	988.754385918163	595.072330656733	541.415814404092	1011.153209895742	515.366938766789	559.987738320846	956.220095140771	730.743645671718	328.160007798580	859.539960956302	625.010240888855	258.139672102652	925.338040339667	539.610003448380	330.370021964447	914.546370641677	471.292805033175	338.956653560902	878.528725144318	403.845239372297	328.733363933805	777.656278527875	300.789050327023	274.931333485701	808.546073062769	185.184112242618	348.560947463884	993.124884804780	427.389620135081	571.864831272984	935.274546526104	317.570476983431	639.231235457479	1002.218732553122	227.321462444771	590.182408901179	902.834453417166	41.163119713959	570.608544935617	1066.446916133824	114.333464829913	602.376682510179	991.608692680170	37.745647094634	639.404860106533	1193.462152608688	80.008087091744	621.259041245215	665.256325983647	38.959275749901	391.962930428138	736.506133200024	35.026568799763	309.211362340284	821.789401169139	94.454072153118	334.874438094827	948.629778875443	40.301109754231	300.466720303191	1045.270143388276	1097.975605159498	111.720996143127	1299.585356645462	1050.938891537219	122.239401491501	730.269075457996	1140.418428780399	668.368892472858	716.723910442730	878.180588713702	682.164776792577	
77	25.047142857143	709.444868752716	1014.746725959368	408.794216238187	964.661109716725	1421.485426640033	257.398194510063	1019.753900879583	1352.113653451750	439.140735168261	907.092243364464	1442.473407588182	586.111908412322	913.902705360941	1490.637096494274	407.682499605684	908.213988761054	941.289958624977	571.935201256880	947.722812010741	949.628167139841	298.376153629989	966.917980277949	753.651030549739	553.085638161088	899.416274447098	640.650283888697	617.592871656422	987.128275777829	592.606741010417	543.541920273958	1008.196775617925	513.509263434445	560.776728252460	956.034167234508	729.433544466778	330.543205078968	858.229779093450	624.662818666943	260.066844402264	923.101277971961	538.447762624535	331.775338850902	911.585302548028	470.201121051100	340.187495164985	875.194457672251	403.056421277823	329.805326783811	773.529890959649	300.867921647270	275.721775832021	803.799179287862	184.810593730680	348.910519966079	991.733870805596	425.231238829539	572.515640214866	935.190535122553	314.537602252254	639.354957679978	1003.098800960950	225.306705507148	589.879171801110	905.191954171671	39.860286761715	570.273491934696	1068.943781547229	112.678793668640	601.262391445070	994.044030633119	36.806090379422	638.835954033595	1195.671240808613	77.963656241243	619.580093492490	659.885655462132	38.892195085948	391.950671738928	731.118339484410	34.996778928233	309.238594118965	816.403763408007	94.427137601557	334.942646607869	943.224308882778	40.248116048973	300.480548607366	1048.549446176376	1098.201533494938	116.305190504394	1303.601948075657	1056.046161475126	127.119493939903	732.317465893324	1137.986021337982	672.601562821346	719.298014630049	875.716859006914	686.368199727106	
